first trial
nRows=16
nColumns=38

# SIMM Motion File Header:
name Sujet_01_velo_80.mvnx
datacolumns 38
datarows 16
otherdata 1
range 12.3000 12.5490
endheader
time pelvis_tilt  pelvis_list  pelvis_rotation  pelvis_tx  pelvis_ty  pelvis_tz  hip_flexion_r  hip_adduction_r  hip_rotation_r  knee_angle_r  ankle_angle_r  subtalar_angle_r  mtp_angle_r  hip_flexion_l  hip_adduction_l  hip_rotation_l  knee_angle_l  ankle_angle_l  subtalar_angle_l  mtp_angle_l  lumbar_extension  lumbar_bending  lumbar_rotation  arm_flex_r  arm_add_r  arm_rot_r  elbow_flex_r  pro_sup_r  wrist_flex_r  wrist_dev_r  arm_flex_l  arm_add_l  arm_rot_l  elbow_flex_l  pro_sup_l  wrist_flex_l  wrist_dev_l
12.3000	-8.0518	4.4150	-15.0287	0.0000	1.2500	-0.0000	44.5263	-14.6051	-8.5185	37.4655	-20.2825	-9.3849	0.0000	79.8957	-2.7535	-0.3421	102.6107	-9.5404	18.1685	-0.0000	-21.1145	-1.0680	-0.2718	92.7534	-14.6972	46.0384	8.2901	112.8055	-43.3575	-8.9415	86.7039	-20.7941	55.2351	11.3654	114.4990	-24.0076	3.0485	
12.3160	-8.0997	4.7334	-14.6145	0.0000	1.2500	-0.0000	42.4708	-14.6097	-8.6360	36.1706	-21.7710	-9.8152	-0.0000	82.5168	-2.3705	0.2883	103.4337	-8.2854	17.2353	0.0000	-21.0587	-1.1914	-0.5453	92.5172	-14.9020	46.1857	8.4156	112.5747	-43.4316	-9.0937	86.7718	-20.7435	55.1565	11.6394	114.8899	-24.0168	3.1754	
12.3330	-8.1506	5.0667	-14.2744	0.0000	1.2500	-0.0000	40.8289	-14.6185	-8.7071	35.6155	-22.8027	-10.4533	-0.0000	84.8891	-2.0623	0.7888	103.7145	-6.8872	16.1749	0.0000	-21.0196	-1.3215	-0.7823	92.2460	-15.0511	46.2727	8.5731	112.3657	-43.4871	-9.1981	86.8615	-20.6419	55.0455	11.8942	115.3078	-24.0777	3.2964	
12.3490	-8.2086	5.3136	-13.9927	0.0000	1.2500	-0.0000	39.7275	-14.6159	-8.7422	35.9793	-23.2527	-10.9787	-0.0000	86.8188	-1.7969	1.0485	103.4052	-5.7301	15.2867	0.0000	-21.0191	-1.3988	-0.9734	92.1477	-15.1753	46.3629	8.7193	112.1625	-43.5200	-9.2532	86.9990	-20.5156	54.9589	12.1061	115.6455	-24.1459	3.4115	
12.3660	-8.2862	5.4456	-13.7665	0.0000	1.2500	-0.0000	39.2496	-14.5865	-8.7880	37.4137	-22.9123	-11.2793	0.0000	88.2938	-1.5681	1.0194	102.4138	-4.9756	14.6134	-0.0000	-21.0788	-1.3994	-1.1115	92.3604	-15.2994	46.4877	8.8573	111.9536	-43.5326	-9.2426	87.2153	-20.3492	54.8959	12.2661	115.8886	-24.2071	3.5251	
12.3830	-8.3727	5.4910	-13.5991	0.0000	1.2500	-0.0000	39.3149	-14.5499	-8.7848	39.7674	-21.9848	-11.4806	-0.0000	89.3253	-1.3954	0.7710	100.8089	-4.4560	14.0729	0.0000	-21.1762	-1.3465	-1.2034	92.7464	-15.3997	46.6153	8.9825	111.7503	-43.5229	-9.1827	87.4792	-20.1581	54.8570	12.3828	116.0515	-24.2757	3.6324	
12.3990	-8.4362	5.4353	-13.4845	0.0000	1.2500	-0.0000	39.8046	-14.5383	-8.5844	42.7655	-20.9530	-11.6061	0.0000	89.7532	-1.2780	0.3663	98.7596	-4.0691	13.7491	0.0000	-21.2675	-1.2523	-1.2605	93.0996	-15.4354	46.7146	9.0408	111.5708	-43.4796	-9.1207	87.7239	-20.0142	54.9017	12.4562	116.0692	-24.3510	3.7200	
12.4160	-8.4645	5.2454	-13.4137	0.0000	1.2500	-0.0000	40.7264	-14.5559	-8.1149	46.4490	-19.9151	-11.6345	-0.0000	89.5180	-1.1880	-0.2234	96.2984	-3.8086	13.6807	0.0000	-21.3413	-1.1030	-1.2879	93.3618	-15.3828	46.7826	8.9997	111.4016	-43.3919	-9.0709	87.9353	-19.9584	55.1070	12.5001	115.8515	-24.4496	3.7844	
12.4330	-8.4699	4.9541	-13.3959	0.0000	1.2500	-0.0000	42.0743	-14.5875	-7.4518	50.7741	-18.7701	-11.5706	0.0000	88.6794	-1.1423	-0.9630	93.3771	-3.6998	13.8230	-0.0000	-21.4094	-0.9131	-1.2802	93.5908	-15.2656	46.8216	8.8915	111.2565	-43.2706	-9.0189	88.1282	-19.9508	55.3964	12.4993	115.4880	-24.5548	3.8292	
12.4490	-8.4576	4.6435	-13.4529	0.0000	1.2500	-0.0000	43.7090	-14.6321	-6.6683	55.3384	-17.7019	-11.4764	-0.0000	87.2560	-1.2039	-1.6998	90.0421	-3.7026	14.1672	-0.0000	-21.4624	-0.7365	-1.2339	93.7546	-15.1147	46.8072	8.7600	111.1946	-43.1377	-8.9681	88.2795	-19.9429	55.5991	12.4099	115.1823	-24.6160	3.8517	
12.4660	-8.4249	4.3243	-13.5880	0.0000	1.2500	-0.0000	45.6247	-14.6897	-5.7215	60.1126	-16.8037	-11.3936	0.0000	85.1793	-1.3938	-2.3845	86.2228	-3.7824	14.8072	0.0000	-21.4979	-0.5862	-1.1509	93.8272	-14.9078	46.7034	8.6003	111.2448	-42.9781	-8.9219	88.3913	-19.8887	55.6388	12.1714	115.0320	-24.6090	3.8452	
12.4830	-8.3730	3.9861	-13.7974	0.0000	1.2500	-0.0000	47.8308	-14.7328	-4.6602	65.1274	-15.9807	-11.2908	-0.0000	82.5178	-1.6796	-3.0912	81.9792	-3.9732	15.6739	0.0000	-21.5186	-0.4493	-1.0299	93.8349	-14.6676	46.5465	8.4177	111.3782	-42.8069	-8.8769	88.4620	-19.8345	55.5921	11.8437	114.9385	-24.5580	3.8162	
12.4990	-8.3127	3.6800	-14.0916	0.0000	1.2500	-0.0000	50.2074	-14.7299	-3.6938	70.0746	-15.1345	-11.1266	0.0000	79.4950	-2.0418	-3.8593	77.5649	-4.3381	16.5114	-0.0000	-21.5221	-0.3409	-0.8635	93.8235	-14.4920	46.4211	8.2710	111.5678	-42.6913	-8.8272	88.4617	-19.8695	55.5168	11.5632	114.8122	-24.4856	3.7812	
12.5160	-8.2396	3.4162	-14.5015	0.0000	1.2500	-0.0000	52.7164	-14.6747	-2.9074	74.9164	-14.2446	-10.7832	0.0000	76.0715	-2.4756	-4.7587	72.9793	-4.8734	17.2935	-0.0000	-21.5062	-0.2675	-0.6360	93.8009	-14.4183	46.3635	8.1810	111.8312	-42.6640	-8.7706	88.3780	-20.0520	55.4082	11.3712	114.6081	-24.3919	3.7557	
12.5330	-8.1575	3.1850	-14.9959	0.0000	1.2500	-0.0000	55.3900	-14.5712	-2.2307	79.6884	-13.3295	-10.3756	-0.0000	72.2842	-2.9458	-5.7614	68.2321	-5.5756	18.0229	0.0000	-21.4734	-0.2216	-0.3633	93.7591	-14.4092	46.3376	8.1267	112.1506	-42.6923	-8.7095	88.2210	-20.3228	55.2701	11.2282	114.3736	-24.2768	3.7245	
12.5490	-8.0902	3.0064	-15.4932	0.0000	1.2500	-0.0000	58.2096	-14.4190	-1.6356	84.1915	-12.3506	-10.2078	-0.0000	68.4715	-3.3998	-6.7392	63.6066	-6.5107	18.4713	-0.0000	-21.4280	-0.1979	-0.0844	93.7202	-14.4509	46.3192	8.1045	112.4448	-42.7464	-8.6451	87.9954	-20.5945	55.1733	11.1494	114.1581	-24.1629	3.6578	
